<?xml version="1.0" standalone="no"?>
<!DOCTYPE svg PUBLIC "-//W3C//DTD SVG 20010904//EN"
 "http://www.w3.org/TR/2001/REC-SVG-20010904/DTD/svg10.dtd">
<svg version="1.0" xmlns="http://www.w3.org/2000/svg"
 width="1019.000000pt" height="1019.000000pt" viewBox="0 0 1019.000000 1019.000000"
 preserveAspectRatio="xMidYMid meet">

<g transform="translate(0.000000,1019.000000) scale(0.100000,-0.100000)"
fill="#000000" stroke="none">
<path d="M4775 10179 c-527 -33 -1060 -154 -1575 -356 -168 -66 -553 -257
-720 -358 -382 -231 -689 -471 -1000 -784 -789 -793 -1297 -1837 -1440 -2956
-55 -432 -51 -904 11 -1340 56 -393 159 -785 305 -1158 65 -165 232 -513 324
-672 386 -672 940 -1265 1582 -1692 712 -475 1490 -752 2362 -840 338 -34 846
-20 1206 33 1890 278 3465 1584 4081 3383 190 555 273 1059 272 1656 0 288
-10 443 -44 695 -102 740 -371 1463 -777 2085 -322 494 -747 948 -1217 1298
-968 723 -2170 1081 -3370 1006z m-1557 -2620 c17 -6 33 -18 37 -27 5 -14 7
-14 15 -2 5 8 12 11 15 8 4 -4 4 -11 0 -17 -7 -13 -55 -15 -55 -3 0 8 -43 32
-57 32 -3 0 -3 -7 0 -15 8 -20 -8 -28 -23 -10 -10 12 -10 18 0 30 15 18 27 19
68 4z m-157 -39 c31 -25 12 -26 -21 0 -14 11 -20 20 -14 20 7 0 22 -9 35 -20z
m132 -37 c22 -14 37 -26 35 -29 -6 -5 -105 43 -112 55 -10 15 36 0 77 -26z
m27 17 c0 -5 -2 -10 -4 -10 -3 0 -8 5 -11 10 -3 6 -1 10 4 10 6 0 11 -4 11
-10z m25 -10 c3 -5 1 -10 -4 -10 -6 0 -11 5 -11 10 0 6 2 10 4 10 3 0 8 -4 11
-10z m-108 -46 c27 -8 20 -24 -10 -25 l-22 0 23 -11 c18 -9 25 -8 36 7 7 10
18 15 24 11 5 -3 12 -1 14 6 4 10 11 9 29 -3 13 -9 38 -19 54 -24 l30 -7 -28
-10 c-36 -13 -30 -31 13 -39 18 -4 35 -11 39 -16 3 -6 35 -13 71 -17 35 -3 68
-10 73 -15 5 -5 16 -7 23 -4 8 3 14 1 14 -5 0 -5 37 -13 83 -16 45 -4 100 -9
121 -13 38 -5 39 -6 17 -18 l-23 -12 23 -6 c13 -4 35 -7 49 -7 19 0 22 -2 10
-9 -8 -6 -17 -8 -21 -5 -4 2 -10 0 -14 -6 -4 -6 6 -10 24 -10 18 0 31 5 31 13
0 7 5 5 11 -5 5 -10 26 -20 47 -24 29 -6 33 -8 17 -14 -17 -6 -14 -9 15 -18
19 -6 44 -13 55 -15 18 -4 18 -5 -2 -6 -43 -2 -23 -20 35 -32 63 -13 77 -15
177 -19 l70 -3 -102 -10 c-57 -5 -100 -13 -97 -18 3 -5 21 -9 41 -9 30 0 34
-2 23 -15 -10 -13 -9 -15 11 -17 41 -2 72 -7 139 -21 l65 -13 -35 -9 -35 -9
48 -4 c48 -3 67 -22 23 -22 -14 0 -27 -4 -30 -9 -6 -9 58 -23 107 -24 15 0 27
-4 27 -8 0 -5 -8 -9 -17 -9 -27 0 -2 -18 31 -22 46 -5 45 -28 -1 -29 -34 -1
-30 -3 27 -16 36 -8 76 -17 90 -20 24 -6 25 -7 3 -10 -36 -7 -27 -21 20 -31
38 -9 39 -10 11 -11 -17 -1 -39 -10 -49 -21 -21 -23 -20 -24 83 -40 39 -7 72
-16 72 -21 0 -5 -9 -9 -20 -9 -38 0 -20 -18 26 -25 34 -5 44 -10 40 -21 -3 -8
-1 -14 4 -14 5 0 7 -7 3 -15 -3 -10 0 -15 8 -13 8 2 13 -2 12 -9 -2 -7 4 -10
12 -7 8 4 15 1 15 -4 0 -6 17 -12 38 -14 20 -2 -64 -4 -187 -6 l-224 -3 -61
39 c-262 168 -689 372 -851 407 -44 10 -162 38 -262 61 -216 53 -293 63 -311
42 -15 -19 -42 -298 -42 -440 l0 -108 -468 0 c-494 0 -473 2 -563 -44 -29 -15
-17 -22 -177 117 -70 61 -91 85 -86 99 4 15 0 18 -23 18 -16 0 -34 5 -40 11
-6 6 -42 17 -79 25 -37 8 -70 17 -72 19 -3 2 1 12 9 21 11 14 10 19 -11 35
-14 10 -30 19 -35 19 -18 0 -36 39 -29 64 4 18 1 25 -16 29 -12 3 -24 15 -27
26 -3 12 -13 21 -22 21 -9 0 -34 11 -56 25 -27 18 -34 25 -20 24 11 -1 34 0
50 0 29 2 29 3 7 12 -34 13 -19 26 40 34 47 7 50 8 30 19 -12 7 -29 21 -37 33
-18 26 -6 33 43 25 54 -8 36 15 -53 67 -17 10 -14 11 20 6 l40 -5 -27 15 c-42
23 -34 33 22 27 33 -3 50 -1 50 7 0 6 -5 11 -11 11 -14 0 -69 61 -69 77 0 7
-3 13 -7 13 -5 1 -24 14 -43 31 l-35 30 50 -25 c45 -22 51 -23 77 -10 17 9 26
20 22 26 -5 8 -1 9 12 3 10 -5 42 -9 69 -10 28 -1 58 -5 68 -10 10 -4 23 -2
32 5 9 7 15 8 15 2 0 -5 9 -12 19 -15 21 -5 43 5 42 19 0 5 11 12 25 16 15 4
24 4 20 1 -3 -3 0 -15 6 -27 10 -18 9 -19 -3 -9 -8 7 -20 8 -28 4 -9 -6 -6
-10 11 -14 15 -5 27 -1 36 10 6 9 12 13 12 7 0 -5 5 -2 10 6 7 11 12 12 21 3
6 -6 17 -9 24 -7 7 3 15 -5 19 -20 4 -17 11 -23 21 -20 9 4 15 0 15 -9 0 -8 7
-27 15 -43 10 -19 11 -30 4 -35 -7 -4 -4 -9 6 -13 28 -11 36 -7 46 23 7 20 15
28 25 24 8 -3 11 -10 8 -17 -3 -6 6 1 20 17 34 37 83 37 120 0 18 -18 23 -29
15 -33 -18 -12 4 -19 38 -14 19 3 36 -1 45 -10 9 -8 33 -18 54 -21 21 -4 51
-16 67 -26 15 -11 27 -15 27 -10 0 6 -8 14 -17 20 -10 5 -15 12 -11 16 3 3 21
-9 40 -27 19 -18 43 -38 54 -45 15 -10 16 -14 6 -21 -11 -8 -9 -14 9 -31 12
-11 26 -22 31 -22 4 -1 13 -2 18 -3 6 0 14 -6 18 -11 15 -22 93 -76 103 -73 7
2 -7 21 -30 43 -46 44 -53 68 -18 63 25 -3 64 37 59 61 -2 9 2 12 12 8 8 -3
22 1 31 9 13 14 29 20 57 23 19 2 38 35 32 54 -6 19 -5 20 10 8 14 -12 16 -10
16 13 0 20 5 26 21 26 15 0 19 5 15 16 -3 9 -2 12 5 9 6 -4 19 1 30 11 10 9
19 13 19 8 0 -5 4 -3 9 5 5 8 20 16 32 18 13 2 26 8 30 14 5 8 8 8 13 0 4 -6
12 -11 17 -11 6 0 7 4 4 10 -3 5 -1 18 5 27 11 16 11 16 6 1 -7 -22 10 -33 18
-12 3 8 10 13 15 9 5 -3 12 -1 16 5 4 6 11 8 16 5 5 -4 9 -2 9 3 0 14 40 22
41 9 0 -8 2 -8 6 1 2 6 9 10 14 7 5 -4 17 -1 26 4 21 12 30 13 60 5z m-1137
-14 c0 -5 -5 -10 -11 -10 -5 0 -7 5 -4 10 3 6 8 10 11 10 2 0 4 -4 4 -10z
m100 -46 c0 -2 -11 2 -25 8 -14 6 -25 15 -25 20 0 5 11 1 25 -8 14 -9 25 -18
25 -20z m-889 0 c17 -8 28 -18 26 -21 -3 -3 -12 -1 -19 3 -7 5 -33 14 -58 20
-43 11 -43 12 -12 13 18 0 47 -6 63 -15z m959 -50 c0 -9 -37 15 -51 33 -10 12
-5 11 19 -6 17 -12 32 -24 32 -27z m510 -94 c0 -5 -4 -10 -10 -10 -5 0 -10 5
-10 10 0 6 5 10 10 10 6 0 10 -4 10 -10z m3124 -149 c-6 -6 -104 90 -104 101
0 5 24 -15 54 -44 30 -29 52 -55 50 -57z m-3364 34 c0 -5 -11 2 -25 15 -14 13
-25 27 -25 31 0 5 11 -2 25 -15 14 -13 25 -27 25 -31z m3320 -122 c0 -20 -18
-15 -30 7 -15 28 -2 46 16 23 7 -10 14 -24 14 -30z m-4553 31 c-3 -3 -12 -4
-19 -1 -8 3 -5 6 6 6 11 1 17 -2 13 -5z m4890 -193 c17 -7 34 -19 37 -27 4
-10 2 -12 -5 -8 -7 4 -10 1 -7 -7 3 -8 11 -13 18 -11 7 2 17 -3 21 -10 13 -20
10 -48 -5 -48 -18 0 -27 -36 -10 -38 8 -1 21 -3 29 -4 9 -1 18 -12 21 -25 4
-12 10 -23 16 -23 5 0 6 -5 3 -11 -4 -6 10 -26 31 -45 35 -31 45 -34 99 -34
97 0 49 -17 -65 -23 -58 -3 -97 -3 -87 0 14 3 15 8 7 18 -6 7 -10 17 -9 21 4
17 -21 65 -36 70 -8 4 -15 15 -15 25 0 10 -6 19 -14 19 -20 0 -28 30 -17 68 9
29 8 32 -12 32 -20 1 -20 2 -4 11 26 15 20 36 -13 43 -16 3 -30 10 -30 17 0 6
3 9 8 7 4 -3 21 -10 39 -17z m-30 -41 c-1 -14 -4 -16 -14 -8 -7 5 -11 14 -8
18 3 5 1 11 -5 15 -5 3 -10 11 -10 17 0 6 9 3 19 -6 11 -10 19 -26 18 -36z
m-4747 25 c21 -25 1 -31 -22 -7 -18 18 -19 22 -6 22 8 0 21 -7 28 -15z m7559
-121 c18 -2 40 -8 50 -14 13 -8 12 -10 -9 -11 -14 0 -44 -2 -67 -4 -29 -2 -43
1 -47 11 -3 8 -18 14 -33 14 -15 0 -35 5 -43 11 -12 8 -10 9 8 4 12 -3 22 -2
22 3 0 6 15 6 43 0 23 -5 57 -11 76 -14z m-2543 -121 c-6 -6 -36 9 -36 18 0 5
9 4 20 -3 10 -7 18 -14 16 -15z m959 -161 c22 -6 71 -18 109 -26 242 -55 464
-174 612 -329 118 -125 166 -218 186 -361 10 -77 0 -181 -20 -195 -4 -3 -12
-15 -18 -26 -6 -11 -30 -33 -53 -50 l-43 -30 -210 -3 -210 -3 -55 28 c-63 32
-109 81 -160 172 -46 82 -89 124 -165 162 -103 52 -168 58 -618 58 -223 1
-436 -4 -474 -9 -137 -20 -226 -92 -242 -196 -13 -90 24 -155 123 -212 38 -22
79 -43 93 -47 14 -4 39 -13 55 -21 54 -25 262 -75 530 -129 280 -56 533 -113
560 -125 11 -5 51 -17 90 -26 38 -9 77 -20 85 -25 8 -4 35 -15 60 -23 244 -81
413 -178 545 -310 117 -118 169 -214 205 -381 12 -52 12 -239 0 -290 -41 -185
-67 -249 -144 -352 -94 -124 -297 -254 -462 -294 -27 -6 -56 -16 -65 -20 -14
-7 -99 -24 -224 -45 -144 -24 -237 -27 -745 -28 -382 0 -574 3 -615 11 -110
21 -250 55 -260 63 -5 4 -35 15 -65 25 -60 20 -212 96 -275 139 -118 80 -227
200 -282 311 -39 76 -53 144 -53 248 0 103 24 158 88 200 59 39 145 51 325 44
126 -5 155 -10 193 -29 57 -28 124 -100 159 -168 36 -72 94 -131 163 -167 106
-56 129 -58 687 -58 553 0 584 3 667 57 108 71 127 219 38 308 -93 93 -278
154 -775 255 -262 53 -431 91 -530 120 -133 38 -291 89 -300 95 -5 4 -28 13
-50 20 -65 21 -212 95 -289 147 -99 66 -223 194 -266 273 -65 121 -81 181 -87
330 -5 136 1 194 32 305 17 63 61 161 83 183 6 7 12 18 12 23 0 15 130 148
169 171 20 12 38 25 41 29 15 20 201 104 266 120 27 6 54 16 60 20 6 5 64 17
130 28 65 11 128 23 139 26 83 24 1163 30 1250 7z m-2406 -26 c52 -33 88 -79
102 -128 6 -25 9 -99 7 -182 -3 -137 -4 -142 -32 -184 -16 -24 -50 -55 -75
-70 l-46 -27 -512 -3 -513 -3 -2 -1182 -3 -1182 -30 -42 c-16 -23 -51 -54 -76
-68 -47 -25 -48 -25 -296 -25 -212 0 -255 2 -284 17 -62 30 -86 52 -108 98
l-21 45 0 1170 0 1170 -472 0 c-260 0 -499 4 -530 10 -73 11 -122 48 -154 114
-22 46 -24 61 -23 195 0 140 1 148 28 196 20 37 41 57 77 77 l49 28 1438 0
1437 0 39 -24z m4180 -72 c18 -4 31 -13 31 -21 0 -11 7 -14 21 -10 13 3 19 1
16 -6 -2 -6 17 -19 42 -28 38 -13 47 -13 54 -2 20 32 57 9 57 -37 0 -9 7 -23
15 -30 8 -7 15 -21 15 -31 0 -11 11 -24 24 -31 21 -9 29 -7 56 16 34 28 51 32
81 15 23 -12 16 -29 -12 -29 -10 0 -19 -5 -19 -10 0 -6 -11 -15 -24 -21 -13
-6 -26 -19 -28 -28 -6 -21 7 -161 17 -183 5 -12 3 -18 -7 -18 -8 0 -36 -14
-62 -31 -27 -16 -51 -28 -54 -25 -2 3 -5 29 -6 57 -2 43 -7 56 -30 75 -36 32
-52 30 -91 -9 -44 -44 -50 -74 -38 -171 10 -80 10 -82 -17 -121 -49 -72 -53
-102 -52 -345 2 -255 -11 -322 -32 -167 -6 47 -60 134 -88 143 -41 12 -118
-91 -118 -159 0 -20 14 -56 35 -91 19 -32 35 -60 35 -61 0 -5 -105 -82 -129
-94 -33 -18 -40 -4 -31 63 6 38 5 64 -2 75 -12 19 -63 51 -83 51 -16 0 -107
-50 -117 -64 -15 -21 -8 -112 14 -185 l22 -74 -30 -24 c-63 -51 -164 -116
-171 -110 -4 4 1 23 10 42 20 42 21 67 3 117 -16 45 -83 148 -97 148 -18 0
-60 -53 -87 -111 l-27 -57 -56 52 c-121 112 -376 251 -554 303 -27 7 -59 18
-70 23 -25 11 -177 57 -230 69 -31 7 -34 9 -13 10 14 1 28 6 30 13 3 8 9 8 24
0 18 -11 18 -11 -5 -12 -31 0 -25 -5 17 -13 30 -6 32 -5 17 9 -8 9 -13 20 -10
25 4 5 -1 6 -9 3 -9 -3 -16 -1 -16 5 0 6 5 12 10 12 6 1 15 3 20 4 6 1 17 3
26 4 8 0 12 6 9 11 -4 6 -16 8 -28 4 -21 -6 -21 -5 -4 12 14 15 19 16 26 6 4
-7 14 -14 22 -16 8 -1 44 -32 80 -68 42 -41 82 -70 105 -78 22 -7 45 -18 53
-24 9 -7 86 -11 230 -11 206 0 218 1 266 24 76 35 131 85 159 144 25 53 49
180 40 220 -15 67 -16 87 -5 87 6 0 11 -8 12 -17 0 -14 3 -12 10 5 5 13 13 21
19 17 5 -3 7 0 4 8 -3 8 2 17 10 20 9 4 16 14 16 22 0 10 5 13 13 9 9 -5 9 -4
0 6 -9 10 -9 16 0 26 30 34 35 42 29 48 -3 4 2 4 12 0 14 -5 17 -3 14 7 -6 15
18 69 30 69 9 0 37 70 34 83 -1 4 2 7 7 7 5 0 11 8 15 18 8 24 28 53 52 77 12
12 20 30 18 45 -2 19 6 31 32 49 24 17 31 27 24 36 -7 8 0 15 25 25 19 7 32
17 29 22 -3 4 1 5 9 2 8 -3 17 2 20 10 4 9 13 16 22 16 8 0 15 5 15 10 0 6 7
10 15 10 8 0 15 4 15 9 0 5 9 7 20 4 15 -4 20 0 20 16 0 15 9 23 33 29 20 5
37 18 45 35 18 38 81 55 151 41z m-3964 -168 c6 -76 20 -100 51 -83 18 10 18
9 3 -9 -9 -10 -22 -28 -28 -39 -10 -16 -11 -16 -7 -2 4 11 2 16 -5 12 -5 -4
-7 -15 -4 -24 3 -10 -1 -33 -9 -52 -14 -32 -15 -25 -16 120 0 85 2 152 4 150
3 -2 7 -35 11 -73z m95 -40 c0 -2 -7 -9 -15 -16 -13 -11 -14 -10 -9 4 5 14 24
23 24 12z m4399 -143 c-3 -50 15 -82 52 -90 16 -3 29 -9 29 -14 0 -12 -107
-11 -115 1 -3 5 1 26 10 46 8 20 15 49 15 65 0 16 3 29 6 29 3 0 4 -17 3 -37z
m181 -126 c0 -16 -18 3 -23 25 -6 22 -5 22 8 4 8 -11 15 -24 15 -29z m-55 23
c18 -8 17 -9 -7 -9 -16 -1 -28 4 -28 9 0 12 8 12 35 0z m-1408 -282 c-2 -13
-4 -3 -4 22 0 25 2 35 4 23 2 -13 2 -33 0 -45z m-3297 -165 c-1 -120 -4 -163
-11 -150 -11 18 -224 196 -246 204 -30 12 -10 23 40 23 67 0 132 22 177 60 19
16 36 30 38 30 1 0 2 -75 2 -167z m1167 61 c-3 -3 -12 -4 -19 -1 -8 3 -5 6 6
6 11 1 17 -2 13 -5z m1000 -10 c-3 -3 -12 -4 -19 -1 -8 3 -5 6 6 6 11 1 17 -2
13 -5z m119 -76 l29 -33 -32 29 c-31 28 -38 36 -30 36 2 0 16 -15 33 -32z
m-959 -4 c-3 -3 -12 -4 -19 -1 -8 3 -5 6 6 6 11 1 17 -2 13 -5z m40 -10 c-3
-3 -12 -4 -19 -1 -8 3 -5 6 6 6 11 1 17 -2 13 -5z m50 -10 c-3 -3 -12 -4 -19
-1 -8 3 -5 6 6 6 11 1 17 -2 13 -5z m60 -10 c-3 -3 -12 -4 -19 -1 -8 3 -5 6 6
6 11 1 17 -2 13 -5z m56 -21 c-7 -2 -19 -2 -25 0 -7 3 -2 5 12 5 14 0 19 -2
13 -5z m60 -10 c-7 -2 -19 -2 -25 0 -7 3 -2 5 12 5 14 0 19 -2 13 -5z m747
-28 c0 -5 -5 -3 -10 5 -5 8 -10 20 -10 25 0 6 5 3 10 -5 5 -8 10 -19 10 -25z
m-687 18 c-7 -2 -21 -2 -30 0 -10 3 -4 5 12 5 17 0 24 -2 18 -5z m120 -30 c-7
-2 -19 -2 -25 0 -7 3 -2 5 12 5 14 0 19 -2 13 -5z m60 -10 c-7 -2 -19 -2 -25
0 -7 3 -2 5 12 5 14 0 19 -2 13 -5z m60 -10 c-7 -2 -19 -2 -25 0 -7 3 -2 5 12
5 14 0 19 -2 13 -5z m130 -30 c-7 -2 -21 -2 -30 0 -10 3 -4 5 12 5 17 0 24 -2
18 -5z m50 -10 c-7 -2 -19 -2 -25 0 -7 3 -2 5 12 5 14 0 19 -2 13 -5z m60 -10
c-7 -2 -21 -2 -30 0 -10 3 -4 5 12 5 17 0 24 -2 18 -5z m62 -13 c-3 -5 -15
-10 -26 -10 -10 0 -19 5 -19 10 0 6 12 10 26 10 14 0 23 -4 19 -10z m2691
-224 l0 -75 -24 26 -23 26 23 48 c12 27 23 49 23 49 0 0 0 -33 1 -74z m-4541
-336 c63 -50 294 -180 321 -180 3 0 20 -7 37 -15 55 -25 190 -71 247 -85 30
-7 60 -16 65 -20 6 -4 39 -13 75 -20 80 -16 88 -22 82 -61 -7 -46 -133 -149
-183 -149 -40 0 -56 14 -87 76 -32 64 -106 138 -174 175 l-63 34 -230 0 c-126
0 -243 -4 -258 -9 l-28 -8 1 78 c0 44 0 92 -2 108 -3 26 1 30 32 39 39 10 76
40 85 69 7 21 19 16 80 -32z m1010 -381 c22 -6 80 -19 128 -29 49 -10 91 -20
94 -23 2 -3 -5 -15 -16 -26 -11 -11 -30 -39 -42 -63 -34 -69 -45 -78 -82 -67
-18 5 -81 14 -142 19 -60 6 -111 12 -113 15 -2 2 17 29 42 60 35 42 46 64 46
90 0 40 13 43 85 24z m521 -114 c38 -13 39 -15 36 -53 -3 -32 1 -43 19 -56 36
-25 74 -21 87 9 7 14 12 35 12 45 0 23 3 24 28 10 9 -5 42 -16 72 -24 30 -8
77 -26 104 -39 l50 -24 -40 -13 c-65 -22 -320 -16 -425 11 -34 9 -37 12 -42
57 -4 26 -9 60 -13 76 -7 28 -7 28 33 22 22 -4 57 -13 79 -21z m-176 -10 c0
-12 -50 -104 -60 -110 -20 -12 -24 5 -11 43 16 43 38 72 58 72 7 0 13 -2 13
-5z m-5943 -646 c52 -13 73 -25 146 -78 64 -47 87 -94 94 -190 3 -42 11 -85
18 -96 12 -21 12 -28 -6 -205 -9 -93 -35 -290 -44 -330 -1 -8 -4 8 -5 35 -1
37 -4 45 -10 30 -7 -18 -8 -19 -15 -3 -7 18 5 147 30 316 13 88 13 95 -5 125
-14 22 -20 50 -20 88 0 172 -111 263 -367 299 -2 0 -3 4 -3 9 0 13 134 13 187
0z m7448 -121 c-4 -28 -32 -271 -38 -332 -2 -14 -18 -23 -72 -36 -146 -36
-231 -52 -260 -48 -30 3 -30 3 -33 76 l-3 73 63 30 c121 57 229 138 298 224
19 24 38 44 42 44 4 1 5 -14 3 -31z m-6560 -278 c9 -16 12 -30 7 -30 -12 0
-52 39 -52 50 0 22 31 8 45 -20z m5324 -137 c0 -5 -4 -17 -9 -28 -8 -18 -9
-17 -9 8 -1 15 4 27 9 27 6 0 10 -3 9 -7z m-1375 -167 c66 -76 110 -172 102
-224 -3 -23 1 -44 14 -65 11 -18 20 -44 20 -59 0 -29 -44 -88 -66 -88 -7 0
-21 -11 -29 -24 -24 -36 -123 -338 -151 -460 -24 -107 -106 -349 -126 -373 -6
-7 -28 -13 -49 -13 -25 0 -39 5 -39 13 1 34 32 140 60 202 20 43 33 89 35 120
1 32 23 107 62 210 33 88 70 201 83 250 26 102 33 115 66 115 33 0 59 43 57
94 -2 63 -23 188 -38 221 -7 17 -36 61 -64 97 -28 37 -51 72 -51 78 0 19 54
-26 114 -94z m1833 -3 c-3 -10 -5 -4 -5 12 0 17 2 24 5 18 2 -7 2 -21 0 -30z
m528 6 c-8 -12 -45 -7 -45 7 0 7 10 9 25 6 14 -2 22 -8 20 -13z m-1159 -734
c19 -15 19 -15 0 -30 -11 -8 -23 -15 -27 -15 -14 0 -59 42 -54 51 9 14 59 11
81 -6z m-244 -176 c11 -6 32 -13 46 -15 15 -2 43 -7 62 -10 75 -13 195 -10
225 5 34 16 94 18 365 8 123 -5 197 -12 250 -26 110 -28 317 -104 378 -138
l53 -30 -40 -7 c-27 -4 -53 -1 -75 8 -30 12 -35 12 -40 0 -3 -8 -12 -14 -21
-14 -8 0 -15 -3 -15 -8 0 -4 -26 -20 -57 -35 -32 -16 -72 -37 -90 -48 l-31
-20 -104 35 c-57 19 -141 51 -188 71 -51 22 -93 34 -106 31 -12 -3 -71 -6
-131 -7 -117 -1 -225 22 -313 66 -25 12 -63 28 -85 35 -50 16 -132 56 -139 69
-6 9 19 41 30 41 3 0 14 -5 26 -11z m-1231 -504 c-5 -44 -31 -117 -49 -138
-17 -19 -49 -15 -69 10 -13 17 -2 66 29 126 17 35 22 38 56 35 35 -3 37 -5 33
-33z"/>
<path d="M3203 7396 c14 -14 21 -16 30 -7 8 8 8 11 0 11 -6 0 -20 3 -30 7 -17
7 -17 6 0 -11z"/>
<path d="M1710 7310 c0 -5 5 -10 10 -10 6 0 10 5 10 10 0 6 -4 10 -10 10 -5 0
-10 -4 -10 -10z"/>
<path d="M1990 7301 c0 -10 22 -31 32 -31 17 0 7 28 -12 33 -11 3 -20 2 -20
-2z"/>
<path d="M1566 7268 c-77 -7 -127 -27 -75 -29 63 -3 75 -4 84 -10 6 -4 24 -10
41 -13 23 -5 34 -2 47 12 16 18 16 20 0 33 -14 12 -34 14 -97 7z"/>
<path d="M1400 7261 c0 -5 11 -11 25 -13 28 -6 34 6 9 16 -22 8 -34 7 -34 -3z"/>
<path d="M1436 7221 c-4 -7 -5 -15 -2 -18 9 -9 19 4 14 18 -4 11 -6 11 -12 0z"/>
<path d="M1550 7220 c0 -5 5 -10 10 -10 6 0 10 5 10 10 0 6 -4 10 -10 10 -5 0
-10 -4 -10 -10z"/>
<path d="M3700 7209 c0 -5 9 -9 20 -9 11 0 20 2 20 4 0 2 -9 6 -20 9 -11 3
-20 1 -20 -4z"/>
<path d="M1352 7171 c2 -7 7 -12 11 -12 12 1 9 15 -3 20 -7 2 -11 -2 -8 -8z"/>
<path d="M1405 7099 c-4 -6 -4 -13 -1 -16 8 -8 36 5 36 17 0 13 -27 13 -35 -1z"/>
<path d="M3880 7100 c0 -5 11 -9 24 -8 14 1 22 6 20 10 -7 12 -44 10 -44 -2z"/>
<path d="M6190 6600 c0 -5 5 -10 11 -10 5 0 7 5 4 10 -3 6 -8 10 -11 10 -2 0
-4 -4 -4 -10z"/>
<path d="M7380 5251 c0 -6 4 -13 10 -16 6 -3 7 1 4 9 -7 18 -14 21 -14 7z"/>
<path d="M7585 1650 c-11 -12 -31 -20 -51 -20 -36 0 -53 -14 -29 -24 9 -3 46
4 83 16 37 13 59 24 50 26 -10 2 -18 8 -18 13 0 15 -16 10 -35 -11z"/>
<path d="M7660 1650 c0 -13 20 -13 40 0 12 8 9 10 -12 10 -16 0 -28 -4 -28
-10z"/>
</g>
</svg>
